<svg xmlns="http://www.w3.org/2000/svg" viewBox="0 0 144.33 184.72"><g fill="none" fill-rule="evenodd"><path d="M123.712 30.199H20.622c-5.801 0-10.504-4.703-10.504-10.504v-6.429c0-5.801 4.703-10.504 10.504-10.504h103.09c5.801 0 10.504 4.703 10.504 10.504v6.429c0 5.801-4.703 10.504-10.504 10.504" fill="#FFEFDC" data-darkreader-inline-fill="" style="--darkreader-inline-fill: #482700;"/><path d="M123.712 2.762h-10.488v16.933c0 5.801-4.703 10.504-10.504 10.504h20.992c5.801 0 10.504-4.703 10.504-10.504v-6.429c0-5.801-4.703-10.504-10.504-10.504" fill="#EFD5B6" data-darkreader-inline-fill="" style="--darkreader-inline-fill: #ebcaa2;"/><path d="M107.165 181.956H37.169c-19.002 0-34.407-15.405-34.407-34.407V88.162c0-25.236 20.458-45.694 45.694-45.694h47.422c25.236 0 45.694 20.458 45.694 45.694v59.387c0 19.002-15.405 34.407-34.407 34.407" fill="#CA7BD6" data-darkreader-inline-fill="" style="--darkreader-inline-fill: #6b2576;"/><path d="M37.169 170.907c-12.9 0-23.358-10.458-23.358-23.358V82.648c0-6.325 5.128-11.453 11.453-11.453h93.806c6.325 0 11.453 5.128 11.453 11.453v64.9c0 12.901-10.458 23.359-23.358 23.359H37.169" fill="#9D42AD" data-darkreader-inline-fill="" style="--darkreader-inline-fill: #7e358a;"/><path d="M92.791 141.404a2.762 2.762 0 1 1 0-5.524 2.762 2.762 0 0 1 0 5.524" fill="#B35AC5" data-darkreader-inline-fill="" style="--darkreader-inline-fill: #b866c9;"/><path d="M34.806 160.725c.588.326 1.171.43 1.749.31.578-.118 1.045-.5 1.402-1.143.357-.644.433-1.242.227-1.795-.206-.553-.602-.993-1.19-1.318l-1.344-.745c-.587-.326-.947-.717-1.078-1.174-.13-.457-.018-1.007.34-1.65l4.467-8.061c.698-1.26.951-2.491.759-3.696-.192-1.204-.682-2.152-1.47-2.845 1.005.301 2.073.207 3.204-.282 1.13-.49 2.045-1.364 2.743-2.623l4.468-8.06c.357-.644.764-1.032 1.22-1.163.457-.13.98-.033 1.567.293l1.344.744c.587.326 1.17.43 1.748.311.578-.119 1.046-.5 1.402-1.144.357-.643.433-1.242.227-1.795-.205-.553-.602-.992-1.19-1.318l-3.149-1.745c-1.623-.9-3.123-1.147-4.502-.74-1.378.407-2.509 1.408-3.393 3.004l-4.515 8.144c-.62 1.12-1.266 1.823-1.937 2.11-.671.286-1.534.192-2.588-.283-.66-.328-1.264-.408-1.816-.238-.552.17-.99.549-1.316 1.136-.326.588-.418 1.168-.278 1.74.14.571.525 1.05 1.153 1.435.96.642 1.498 1.324 1.61 2.045.113.72-.141 1.641-.762 2.76l-4.514 8.145c-.885 1.595-1.134 3.085-.749 4.47.385 1.384 1.39 2.526 3.013 3.426l3.148 1.745zm11.275 6.25c1.623.9 3.124 1.146 4.502.739 1.378-.407 2.51-1.408 3.393-3.004l4.515-8.144c.62-1.12 1.266-1.823 1.937-2.11.671-.286 1.534-.192 2.588.283.687.344 1.304.42 1.849.229.545-.192.98-.582 1.307-1.17.325-.587.414-1.16.266-1.718-.148-.557-.536-1.029-1.165-1.414-.96-.642-1.497-1.324-1.61-2.045-.113-.72.141-1.641.762-2.76l4.515-8.145c.884-1.595 1.133-3.085.748-4.47-.385-1.384-1.39-2.526-3.012-3.426l-3.15-1.745c-.587-.326-1.17-.43-1.748-.31-.578.118-1.045.5-1.402 1.143-.357.644-.432 1.242-.227 1.795.206.553.603.993 1.19 1.318l1.344.745c.588.326.947.717 1.078 1.174.13.457.018 1.007-.339 1.65l-4.468 8.061c-.698 1.26-.955 2.498-.77 3.717.184 1.218.67 2.173 1.457 2.866-1.004-.301-2.068-.214-3.19.261-1.124.475-2.035 1.343-2.733 2.602l-4.468 8.06c-.357.644-.763 1.032-1.22 1.163-.457.13-.98.033-1.567-.293l-1.343-.744c-.588-.326-1.17-.43-1.749-.311-.578.119-1.045.5-1.402 1.144-.357.643-.433 1.242-.227 1.795.206.553.602.992 1.19 1.318l3.149 1.745z" fill="#BA6ACA" fill-rule="nonzero" data-darkreader-inline-fill="" style="--darkreader-inline-fill: #bd71cd;"/><path d="M65.763 119.525a2.763 2.763 0 1 1 0-5.525 2.763 2.763 0 0 1 0 5.525" fill="#B35AC5" data-darkreader-inline-fill="" style="--darkreader-inline-fill: #b866c9;"/><path d="M61.674 104.739c.633-.182 1.123-.575 1.471-1.18.348-.605.436-1.209.263-1.811-.172-.603-.584-1.071-1.234-1.406l-5.323-2.875c.832-3.237.898-6.646.197-10.226-.134-.81-.494-1.382-1.08-1.72a2.324 2.324 0 0 0-1.872-.22c-.602.172-1.086.53-1.452 1.076-.365.545-.485 1.206-.36 1.985.45 2.479.513 4.743.188 6.792l-8.1-4.376c1.664-1.814 2.787-3.497 3.369-5.049.581-1.552.639-3.141.173-4.768-.605-2.108-1.802-3.582-3.59-4.422-1.79-.84-3.89-.914-6.299-.223-2.59.743-4.497 2.023-5.72 3.84-1.222 1.818-1.505 3.871-.849 6.16a7.995 7.995 0 0 0 1.833 3.24c.877.954 2.056 1.855 3.538 2.701-1.94 1.99-3.243 3.896-3.91 5.717-.668 1.821-.725 3.696-.173 5.624.493 1.716 1.388 3.106 2.687 4.168 1.298 1.061 2.872 1.718 4.72 1.97 1.85.253 3.828.077 5.937-.528a14.357 14.357 0 0 0 5.104-2.661c1.535-1.24 2.812-2.754 3.83-4.546l4.787 2.54c.611.313 1.233.379 1.865.198zM40.548 88.696c-1.249-.717-2.173-1.357-2.774-1.918a4.272 4.272 0 0 1-1.226-1.97c-.31-1.085-.22-2.048.272-2.89.492-.842 1.28-1.418 2.364-1.73.994-.284 1.871-.21 2.631.224.76.434 1.279 1.133 1.555 2.097.268.933.186 1.87-.246 2.808-.431.939-1.29 2.065-2.576 3.38zm4.554 16.052c-1.717.492-3.198.469-4.445-.07-1.246-.54-2.073-1.516-2.479-2.932-.354-1.235-.332-2.439.065-3.612s1.234-2.432 2.51-3.776l10.226 5.478c-.688 1.24-1.53 2.28-2.528 3.12a8.997 8.997 0 0 1-3.349 1.792zM100.405 92.898c.684.846 1.458 1.331 2.321 1.456.863.125 1.667-.115 2.413-.72.746-.603 1.137-1.341 1.172-2.214.034-.872-.28-1.719-.945-2.54-.685-.845-1.452-1.335-2.303-1.47-.85-.135-1.648.1-2.394.704-.746.604-1.148 1.341-1.205 2.211-.058.87.256 1.728.94 2.573zm-22.158 17.944c.543.671 1.19 1.075 1.937 1.21.748.135 1.483-.089 2.204-.673l14.399-11.66c.721-.584 1.087-1.25 1.098-2 .01-.75-.257-1.46-.8-2.132-.544-.672-1.179-1.074-1.904-1.207-.725-.133-1.449.092-2.17.676l-14.399 11.66c-.721.584-1.098 1.25-1.131 1.997-.033.748.222 1.457.766 2.129zm13.598 13.131c.383.472.861.733 1.436.782.575.05 1.1-.117 1.572-.5l5.782-4.682 4.712 5.82c.383.472.855.737 1.418.797.562.059 1.08-.103 1.553-.486.472-.382.738-.855.797-1.418.06-.562-.103-1.08-.485-1.552l-4.713-5.82 5.82-4.712c.472-.382.738-.855.797-1.418.06-.562-.103-1.08-.485-1.552-.383-.473-.855-.739-1.418-.798-.563-.059-1.08.103-1.553.486l-5.819 4.712-4.712-5.82c-.383-.472-.855-.738-1.418-.797-.563-.059-1.08.103-1.553.485-.472.383-.738.856-.797 1.418-.06.563.103 1.08.485 1.553l4.712 5.82-5.781 4.681c-.473.383-.745.86-.817 1.433-.071.573.084 1.095.467 1.568zm17.034 21.035c.382.472.861.733 1.436.782.575.05 1.099-.118 1.571-.5l5.782-4.682 4.713 5.819c.382.472.855.738 1.418.797.562.06 1.08-.102 1.552-.485.473-.383.738-.855.798-1.418.059-.562-.103-1.08-.486-1.552l-4.712-5.82 5.82-4.712c.472-.383.738-.855.797-1.418.059-.562-.103-1.08-.486-1.552-.382-.473-.855-.739-1.417-.798-.563-.06-1.08.103-1.553.485l-5.82 4.713-4.712-5.82c-.382-.472-.855-.738-1.417-.797-.563-.06-1.08.103-1.553.485-.473.383-.738.855-.798 1.418-.059.563.103 1.08.486 1.553l4.712 5.819-5.782 4.682c-.472.383-.744.86-.816 1.433-.072.573.084 1.095.467 1.568z" fill="#BA6ACA" fill-rule="nonzero" data-darkreader-inline-fill="" style="--darkreader-inline-fill: #712d7f;"/><path d="M119.07 71.195h-6.447v77.706c0 11.262-8.383 20.545-19.245 22.006h13.787c12.9 0 23.358-10.458 23.358-23.359V82.649c0-6.326-5.128-11.454-11.453-11.454" fill-opacity=".63" fill="#7F349B" data-darkreader-inline-fill="" style="--darkreader-inline-fill: #662a7c;"/><path d="M48.456 45.231c-23.673 0-42.932 19.259-42.932 42.931v59.386c0 17.449 14.196 31.645 31.645 31.645h69.996c17.449 0 31.645-14.196 31.645-31.645V88.162c0-23.672-19.259-42.931-42.932-42.931H48.456zm58.709 139.487H37.169C16.674 184.718 0 168.043 0 147.548V88.162c0-26.718 21.737-48.456 48.456-48.456h47.422c26.719 0 48.456 21.738 48.456 48.456v59.386c0 20.495-16.674 37.17-37.169 37.17zM20.622 5.524c-4.269 0-7.742 3.473-7.742 7.742v6.429c0 4.269 3.473 7.742 7.742 7.742h103.09c4.269 0 7.742-3.473 7.742-7.742v-6.429c0-4.269-3.473-7.742-7.742-7.742H20.622zm103.09 27.437H20.622c-7.315 0-13.266-5.951-13.266-13.266v-6.429C7.356 5.951 13.307 0 20.622 0h103.09c7.316 0 13.267 5.951 13.267 13.266v6.429c0 7.315-5.951 13.266-13.267 13.266z" fill="#561200" data-darkreader-inline-fill="" style="--darkreader-inline-fill: #450e00;"/><path d="M8.211 52.236c-2.626 4.43 2.092 9.64 6.813 7.583 4.794-2.089 9.08-5.325 15.563-5.325 10.431 0 10.431 7.171 20.862 7.171 10.429 0 10.429-7.171 20.859-7.171 10.429 0 10.429 7.171 20.858 7.171 10.425 0 10.425-7.171 20.85-7.171 6.323 0 10.573 3.192 15.239 5.368 4.712 2.199 9.501-3.078 6.875-7.567-2.258-3.86-5.964-10.479-12.005-13.343H20.473c-6.337 3.075-10.067 9.583-12.262 13.284" fill="#FFEFDC" data-darkreader-inline-fill="" style="--darkreader-inline-fill: #482700;"/><path d="M136.13 52.295c-2.258-3.86-5.964-10.479-12.005-13.343H105.96c2.545 5.119 5.054 10.276 7.426 15.569.214-.006.407-.027.63-.027 6.323 0 10.573 3.192 15.239 5.368 4.712 2.199 9.501-3.078 6.875-7.567" fill="#EFD5B6" data-darkreader-inline-fill="" style="--darkreader-inline-fill: #ebcaa2;"/><path d="M72.308 51.732c6.072 0 9.218 2.163 11.994 4.071 2.518 1.732 4.507 3.1 8.864 3.1 4.354 0 6.342-1.368 8.859-3.099 2.775-1.909 5.921-4.072 11.991-4.072 5.59 0 9.753 2.188 13.426 4.119 1.026.539 1.996 1.049 2.98 1.508 1.565.728 2.672-.295 2.975-.627.304-.333 1.228-1.539.349-3.041l-.243-.416c-2.113-3.622-5.27-9.031-10.031-11.561H21.136c-5.111 2.744-8.387 8.279-10.372 11.632l-.177.298c-.854 1.442.019 2.618.307 2.944.622.704 1.745 1.258 3.027.698 1.097-.477 2.174-1.023 3.314-1.602 3.652-1.852 7.792-3.952 13.352-3.952 6.073 0 9.22 2.163 11.996 4.071 2.519 1.732 4.508 3.1 8.866 3.1 4.356 0 6.346-1.368 8.864-3.1 2.776-1.908 5.922-4.071 11.995-4.071zm20.858 12.695c-6.072 0-9.219-2.163-11.994-4.071-2.519-1.732-4.508-3.1-8.864-3.1-4.357 0-6.346 1.368-8.864 3.1-2.776 1.908-5.922 4.071-11.995 4.071-6.074 0-9.22-2.163-11.996-4.071-2.519-1.732-4.509-3.1-8.866-3.1-4.24 0-7.452 1.63-10.853 3.355-1.161.589-2.362 1.198-3.607 1.74-3.298 1.437-6.977.609-9.374-2.107-2.363-2.676-2.722-6.372-.917-9.417l.175-.296c2.371-4.005 6.338-10.707 13.255-14.064a2.755 2.755 0 0 1 1.206-.278h103.653c.41 0 .814.092 1.184.267 6.602 3.13 10.585 9.956 12.965 14.035l.24.41c1.822 3.113 1.416 6.863-1.034 9.552-2.445 2.683-6.134 3.432-9.393 1.913-1.103-.515-2.177-1.079-3.216-1.625-3.408-1.792-6.629-3.485-10.855-3.485-4.354 0-6.342 1.368-8.859 3.1-2.776 1.908-5.92 4.071-11.991 4.071z" fill="#561200" data-darkreader-inline-fill="" style="--darkreader-inline-fill: #450e00;"/><path fill="#9D42AD" d="M17.279 40.765h109.776V30.154H17.279z" data-darkreader-inline-fill="" style="--darkreader-inline-fill: #7e358a;"/><path fill="#7F349B" d="M107.694 40.765h19.361V30.154h-19.361z" data-darkreader-inline-fill="" style="--darkreader-inline-fill: #b36cce;"/><path d="M20.041 38.003h104.252v-5.087H20.041v5.087zm107.014 5.524H17.279a2.763 2.763 0 0 1-2.762-2.762V30.154a2.762 2.762 0 0 1 2.762-2.762h109.776a2.762 2.762 0 0 1 2.762 2.762v10.611a2.763 2.763 0 0 1-2.762 2.762z" fill="#561200" data-darkreader-inline-fill="" style="--darkreader-inline-fill: #450e00;"/><path d="M15.135 88.597a4.42 4.42 0 0 1-4.408-4.8c.299-3.453 1.448-6.759 3.324-9.56 2.079-3.104 4.929-5.443 8.244-6.765a4.42 4.42 0 0 1 3.275 8.21c-1.65.659-3.094 1.859-4.175 3.474-1.048 1.564-1.692 3.432-1.862 5.403a4.42 4.42 0 0 1-4.398 4.038" fill="#FFF" data-darkreader-inline-fill="" style="--darkreader-inline-fill: #e8e6e3;"/><path d="M77.791 157.009a3.867 3.867 0 1 1 0-7.734 3.867 3.867 0 0 1 0 7.734M36.124 120.642a4.5 4.5 0 1 1 0-9 4.5 4.5 0 0 1 0 9M68.124 101.042a3.867 3.867 0 1 1 0-7.733 3.867 3.867 0 0 1 0 7.733" fill="#B35AC5" data-darkreader-inline-fill="" style="--darkreader-inline-fill: #7a3089;"/><path d="M15.435 101.642h-.617a4.109 4.109 0 0 1-4.108-4.109v-.616a4.109 4.109 0 0 1 4.108-4.109h.617a4.109 4.109 0 0 1 4.108 4.109v.616a4.109 4.109 0 0 1-4.108 4.109" fill="#FFF" data-darkreader-inline-fill="" style="--darkreader-inline-fill: #e8e6e3;"/></g></svg>